<svg width="249" height="52" viewBox="0 0 249 52" fill="none" xmlns="http://www.w3.org/2000/svg">
<mask id="path-1-outside-1_2303_4106" maskUnits="userSpaceOnUse" x="0" y="0" width="27" height="30" fill="black">
<rect fill="white" width="27" height="30"/>
<path d="M19.8547 26.2136L17.4375 29.7206C17.4375 29.7206 5.84184 30.6962 1.82246 19.6266C-2.19693 8.55699 9.48064 0.215006 15.9981 1.05877L15.8944 5.01379C14.595 4.9684 13.3125 5.31161 12.2205 5.99699C11.1285 6.68238 10.2796 7.67687 9.78863 8.84597C8.033 12.9742 10.1868 17.5645 15.0773 18.0921C19.9677 18.6197 24.5274 18.6369 26.3193 20.1311L22.8257 23.1195C21.0857 22.3923 19.1947 22.0703 17.3037 22.179C13.5021 22.179 7.55598 21.6514 5.30053 13.7152C5.30053 13.7152 2.6759 25.6155 19.8557 26.2136"/>
</mask>
<path d="M19.8547 26.2136L17.4375 29.7206C17.4375 29.7206 5.84184 30.6962 1.82246 19.6266C-2.19693 8.55699 9.48064 0.215006 15.9981 1.05877L15.8944 5.01379C14.595 4.9684 13.3125 5.31161 12.2205 5.99699C11.1285 6.68238 10.2796 7.67687 9.78863 8.84597C8.033 12.9742 10.1868 17.5645 15.0773 18.0921C19.9677 18.6197 24.5274 18.6369 26.3193 20.1311L22.8257 23.1195C21.0857 22.3923 19.1947 22.0703 17.3037 22.179C13.5021 22.179 7.55598 21.6514 5.30053 13.7152C5.30053 13.7152 2.6759 25.6155 19.8557 26.2136" fill="white"/>
<path d="M17.4375 29.7206L17.4542 29.9199L17.5485 29.9119L17.6021 29.8341L17.4375 29.7206ZM15.9981 1.05877L16.1981 1.06401L16.2028 0.883596L16.0238 0.860425L15.9981 1.05877ZM15.8944 5.01379L15.8875 5.21367L16.0891 5.22071L16.0944 5.01903L15.8944 5.01379ZM9.78863 8.84597L9.97268 8.92424L9.97303 8.9234L9.78863 8.84597ZM26.3193 20.1311L26.4493 20.283L26.6293 20.1291L26.4474 19.9775L26.3193 20.1311ZM22.8257 23.1195L22.7486 23.304L22.8622 23.3515L22.9557 23.2715L22.8257 23.1195ZM17.3037 22.179V22.3794L17.3152 22.3787L17.3037 22.179ZM5.30053 13.7152L5.49291 13.6606L5.10522 13.6722L5.30053 13.7152ZM19.69 26.1001L17.2728 29.6071L17.6021 29.8341L20.0194 26.3271L19.69 26.1001ZM17.4375 29.7206C17.4207 29.5213 17.4208 29.5213 17.4208 29.5213C17.4207 29.5213 17.4207 29.5213 17.4206 29.5213C17.4203 29.5213 17.4199 29.5213 17.4194 29.5214C17.4182 29.5215 17.4164 29.5216 17.4138 29.5218C17.4088 29.5222 17.4009 29.5228 17.3905 29.5235C17.3695 29.5249 17.3378 29.5269 17.2959 29.5291C17.2123 29.5334 17.0882 29.5384 16.9283 29.5409C16.6084 29.5459 16.1455 29.5408 15.577 29.5006C14.4394 29.4199 12.8817 29.1983 11.2008 28.6351C7.84328 27.51 3.99477 25.0233 2.01045 19.5584L1.63446 19.6949C3.66952 25.2996 7.62852 27.8599 11.0737 29.0143C12.7941 29.5909 14.3865 29.8172 15.5487 29.8996C16.1301 29.9408 16.6045 29.946 16.9345 29.9408C17.0995 29.9383 17.2284 29.9331 17.3166 29.9286C17.3607 29.9263 17.3946 29.9241 17.4177 29.9226C17.4293 29.9218 17.4382 29.9211 17.4443 29.9207C17.4473 29.9204 17.4497 29.9202 17.4514 29.9201C17.4522 29.92 17.4529 29.92 17.4533 29.9199C17.4536 29.9199 17.4538 29.9199 17.4539 29.9199C17.4541 29.9199 17.4542 29.9199 17.4375 29.7206ZM2.01045 19.5584C0.0325572 14.1111 1.91148 9.33588 5.10319 6.01373C8.3057 2.68034 12.7952 0.845777 15.9725 1.25711L16.0238 0.860425C12.6836 0.427998 8.07555 2.34254 4.81474 5.73661C1.54314 9.14192 -0.407027 14.0725 1.63446 19.6949L2.01045 19.5584ZM15.7982 1.05353L15.6945 5.00855L16.0944 5.01903L16.1981 1.06401L15.7982 1.05353ZM15.9014 4.81391C14.5624 4.76714 13.2404 5.12076 12.1142 5.82759L12.3268 6.16639C13.3846 5.50246 14.6276 5.16966 15.8875 5.21367L15.9014 4.81391ZM12.1142 5.82759C10.9879 6.53447 10.1114 7.5608 9.60423 8.76853L9.97303 8.9234C10.4477 7.79294 11.269 6.83028 12.3268 6.16639L12.1142 5.82759ZM9.60458 8.76769C8.70475 10.8836 8.80341 13.1272 9.76454 14.914C10.7274 16.704 12.5478 18.0204 15.0558 18.291L15.0987 17.8933C12.7164 17.6363 11.0146 16.3936 10.1168 14.7245C9.21731 13.0523 9.11688 10.9366 9.97267 8.92424L9.60458 8.76769ZM15.0558 18.291C17.5204 18.5569 19.8568 18.6901 21.8344 18.9474C22.8177 19.0754 23.697 19.2325 24.4386 19.4483C25.1819 19.6646 25.7732 19.9361 26.1912 20.2847L26.4474 19.9775C25.9694 19.5789 25.3188 19.2879 24.5504 19.0643C23.7803 18.8402 22.878 18.6799 21.8861 18.5508C19.9132 18.2941 17.5246 18.155 15.0987 17.8933L15.0558 18.291ZM26.1893 19.9791L22.6957 22.9675L22.9557 23.2715L26.4493 20.283L26.1893 19.9791ZM22.9028 22.9349C21.1347 22.196 19.2134 21.8689 17.2922 21.9794L17.3152 22.3787C19.176 22.2717 21.0367 22.5886 22.7486 23.304L22.9028 22.9349ZM17.3037 21.979C15.4086 21.979 13.0116 21.8463 10.8119 20.7444C8.62249 19.6477 6.6066 17.5793 5.49291 13.6606L5.10814 13.7699C6.24991 17.7874 8.3348 19.9509 10.6327 21.102C12.9204 22.248 15.3972 22.379 17.3037 22.379V21.979ZM5.30053 13.7152C5.10522 13.6722 5.10518 13.6723 5.10513 13.6726C5.1051 13.6727 5.10504 13.673 5.10498 13.6732C5.10487 13.6738 5.10471 13.6745 5.10452 13.6754C5.10413 13.6772 5.10359 13.6797 5.10292 13.6829C5.10157 13.6894 5.09967 13.6987 5.0973 13.7107C5.09255 13.7348 5.08594 13.7698 5.07814 13.8151C5.06255 13.9057 5.04221 14.0374 5.02266 14.2045C4.98356 14.5386 4.94751 15.015 4.9589 15.588C4.98168 16.733 5.19412 18.2699 5.95602 19.828C7.48884 22.9627 11.2081 26.1127 19.8488 26.4135L19.8627 26.0137C11.3235 25.7165 7.76519 22.6173 6.31536 19.6523C5.58594 18.1606 5.3808 16.685 5.35882 15.58C5.34784 15.028 5.38262 14.57 5.41995 14.251C5.43861 14.0915 5.45788 13.967 5.47235 13.883C5.47958 13.8409 5.4856 13.8091 5.48975 13.7881C5.49182 13.7776 5.49342 13.7698 5.49446 13.7648C5.49498 13.7623 5.49536 13.7605 5.49559 13.7594C5.49571 13.7589 5.49579 13.7585 5.49583 13.7583C5.49585 13.7582 5.49585 13.7582 5.49586 13.7582C5.49585 13.7582 5.49583 13.7583 5.30053 13.7152Z" fill="white" mask="url(#path-1-outside-1_2303_4106)"/>
<path d="M25.3084 32.2028L25.3498 32.1409L25.2666 32.0854L25.3498 32.1409L25.3499 32.1408L25.3503 32.1401L25.3522 32.1373L25.3599 32.126L25.3908 32.081C25.4184 32.0412 25.4596 31.9825 25.5141 31.9068C25.6231 31.7553 25.7852 31.5361 25.997 31.2659C26.4206 30.7255 27.0429 29.9812 27.8365 29.1669C29.4247 27.5372 31.695 25.6315 34.43 24.5136C37.1792 23.3898 39.0009 22.8474 40.3858 22.5854C41.6879 22.3391 42.6065 22.34 43.5559 22.341C43.6153 22.341 43.6747 22.3411 43.7344 22.3411C43.7785 22.3411 43.8254 22.3412 43.8748 22.3413C44.9604 22.3437 47.3005 22.3487 49.6669 21.3397C52.0636 20.3176 54.4812 18.258 55.661 14.1259C55.8688 15.5275 55.7646 16.9579 55.3533 18.3202C54.8984 19.8265 54.081 21.2064 52.9683 22.3459C51.0507 24.2599 49.5054 25.0658 47.9049 25.4299C47.1022 25.6126 46.2826 25.6847 45.3893 25.7275C45.0373 25.7444 44.6723 25.7567 44.2923 25.7695C43.7125 25.7891 43.0981 25.8098 42.4425 25.8496C40.254 25.9825 37.4429 26.7519 34.777 28.1952C32.1106 29.6387 29.5828 31.76 27.9692 34.6015L27.9291 34.6722L27.99 34.7259L30.9227 37.3096L31.0083 37.385L31.0719 37.2902L30.9888 37.2345L31.0719 37.2901L31.072 37.29L31.0726 37.2891L31.075 37.2856L31.0848 37.2711C31.0937 37.2582 31.107 37.239 31.1248 37.2137C31.1604 37.1632 31.2137 37.0888 31.2845 36.9937C31.426 36.8036 31.6369 36.5309 31.9141 36.2018C32.4686 35.5435 33.2875 34.66 34.3446 33.7604C36.4598 31.9604 39.5223 30.1009 43.3244 29.8411C43.5975 29.8224 43.8635 29.8046 44.1227 29.7872C47.4919 29.5608 49.7208 29.4111 51.6431 28.5945C53.72 27.7124 55.4303 26.0574 57.8489 22.7319C60.2879 19.3783 60.8306 14.2108 58.9299 9.73847C57.0261 5.25911 52.6735 1.48005 45.332 0.90031L45.2241 0.891792V1V4.75163V4.84023L45.3121 4.8509L45.3121 4.8509L45.3122 4.85091L45.3127 4.85098L45.3153 4.8513L45.3258 4.85269C45.3353 4.85396 45.3495 4.85594 45.3683 4.85872C45.4058 4.86428 45.4613 4.87305 45.5326 4.88579C45.6751 4.91126 45.8805 4.95258 46.1304 5.01577C46.6305 5.14221 47.3076 5.35588 48.0159 5.70462C49.4334 6.40239 50.9661 7.63513 51.4726 9.78379C51.9832 11.9497 51.6453 13.9755 50.5925 15.4506C49.5411 16.9238 47.7678 17.8606 45.3791 17.8347L45.3783 17.8347C40.5431 17.8214 35.784 19.0047 31.5502 21.2732C27.3164 23.5418 23.7476 26.8207 21.1809 30.8008L21.1093 30.9117L21.2355 30.9505L25.2373 32.1809L25.3084 32.2028Z" fill="white" stroke="white" stroke-width="0.2"/>
<mask id="path-4-outside-2_2303_4106" maskUnits="userSpaceOnUse" x="30.2086" y="31.6467" width="17" height="20" fill="black">
<rect fill="white" x="30.2086" y="31.6467" width="17" height="20"/>
<path d="M46.1423 36.7081V32.6474C46.1423 32.6474 34.2118 32.3312 33.2702 45.4096C33.2702 45.6801 33.1595 45.9395 32.9625 46.1308C32.7655 46.3221 32.4983 46.4296 32.2197 46.4296H31.2273L31.2086 50.9978C32.5115 51.0167 33.7859 50.6268 34.8422 49.8861C35.8986 49.1454 36.6805 48.0935 37.0718 46.8867C38.5557 42.5621 36.8903 37.8872 46.1413 36.7092"/>
</mask>
<path d="M46.1423 36.7081V32.6474C46.1423 32.6474 34.2118 32.3312 33.2702 45.4096C33.2702 45.6801 33.1595 45.9395 32.9625 46.1308C32.7655 46.3221 32.4983 46.4296 32.2197 46.4296H31.2273L31.2086 50.9978C32.5115 51.0167 33.7859 50.6268 34.8422 49.8861C35.8986 49.1454 36.6805 48.0935 37.0718 46.8867C38.5557 42.5621 36.8903 37.8872 46.1413 36.7092" fill="white"/>
<path d="M46.1423 32.6474H46.3423V32.4526L46.1476 32.4475L46.1423 32.6474ZM33.2702 45.4096L33.0707 45.3952L33.0702 45.4024V45.4096H33.2702ZM31.2273 46.4296V46.2296H31.0281L31.0273 46.4287L31.2273 46.4296ZM31.2086 50.9978L31.0086 50.997L31.0078 51.1949L31.2057 51.1977L31.2086 50.9978ZM37.0718 46.8867L36.8826 46.8218L36.8815 46.825L37.0718 46.8867ZM46.3423 36.7081V32.6474H45.9423V36.7081H46.3423ZM46.1423 32.6474C46.1476 32.4475 46.1475 32.4475 46.1473 32.4475C46.1472 32.4475 46.1469 32.4475 46.1467 32.4474C46.1462 32.4474 46.1455 32.4474 46.1446 32.4474C46.1429 32.4474 46.1404 32.4473 46.1372 32.4473C46.1309 32.4471 46.1218 32.447 46.1098 32.4469C46.086 32.4467 46.0512 32.4466 46.0061 32.4471C45.9159 32.448 45.7845 32.451 45.6176 32.4596C45.2837 32.4768 44.8072 32.5162 44.233 32.6047C43.0854 32.7816 41.5434 33.1557 39.9696 33.9454C36.8108 35.5305 33.5469 38.7809 33.0707 45.3952L33.4696 45.424C33.935 38.9599 37.1072 35.8292 40.149 34.3029C41.6757 33.5368 43.1751 33.1725 44.2939 33C44.853 32.9138 45.3159 32.8757 45.6381 32.8591C45.7992 32.8508 45.9251 32.8479 46.0101 32.847C46.0526 32.8466 46.0849 32.8467 46.1063 32.8469C46.117 32.847 46.125 32.8471 46.1301 32.8472C46.1327 32.8472 46.1346 32.8473 46.1357 32.8473C46.1363 32.8473 46.1367 32.8473 46.1369 32.8473C46.137 32.8473 46.1371 32.8473 46.1371 32.8473C46.1371 32.8473 46.137 32.8473 46.1423 32.6474ZM33.0702 45.4096C33.0702 45.6251 32.982 45.8331 32.8232 45.9873L33.1018 46.2743C33.3369 46.046 33.4702 45.7351 33.4702 45.4096H33.0702ZM32.8232 45.9873C32.6641 46.1418 32.4471 46.2296 32.2197 46.2296V46.6296C32.5495 46.6296 32.8669 46.5024 33.1018 46.2743L32.8232 45.9873ZM32.2197 46.2296H31.2273V46.6296H32.2197V46.2296ZM31.0273 46.4287L31.0086 50.997L31.4086 50.9986L31.4273 46.4304L31.0273 46.4287ZM31.2057 51.1977C32.5502 51.2173 33.8659 50.815 34.957 50.0499L34.7274 49.7224C33.7059 50.4386 32.4728 50.8161 31.2115 50.7978L31.2057 51.1977ZM34.957 50.0499C36.0483 49.2847 36.8571 48.1972 37.262 46.9484L36.8815 46.825C36.5039 47.9897 35.7489 49.0061 34.7274 49.7224L34.957 50.0499ZM37.261 46.9516C37.638 45.8528 37.815 44.7313 38.0107 43.6741C38.2077 42.6094 38.4239 41.6078 38.8729 40.7072C39.7569 38.934 41.5761 37.4921 46.1666 36.9076L46.116 36.5108C41.4555 37.1042 39.482 38.5889 38.5149 40.5288C38.0383 41.4847 37.8145 42.5364 37.6173 43.6013C37.4188 44.6737 37.2475 45.7582 36.8826 46.8218L37.261 46.9516Z" fill="white" mask="url(#path-4-outside-2_2303_4106)"/>
<mask id="path-6-outside-3_2303_4106" maskUnits="userSpaceOnUse" x="15.4857" y="31.6467" width="17" height="20" fill="black">
<rect fill="white" x="15.4857" y="31.6467" width="17" height="20"/>
<path d="M16.4857 36.7081V32.6474C16.4857 32.6474 28.4163 32.3312 29.3579 45.4096C29.3579 45.6801 29.4686 45.9395 29.6656 46.1308C29.8626 46.3221 30.1298 46.4296 30.4084 46.4296H31.3137V50.9998C30.0248 51.0114 28.7669 50.6168 27.7288 49.8752C26.6906 49.1335 25.9283 48.0848 25.5563 46.8867C24.0724 42.5621 25.7378 37.8872 16.4857 36.7092"/>
</mask>
<path d="M16.4857 36.7081V32.6474C16.4857 32.6474 28.4163 32.3312 29.3579 45.4096C29.3579 45.6801 29.4686 45.9395 29.6656 46.1308C29.8626 46.3221 30.1298 46.4296 30.4084 46.4296H31.3137V50.9998C30.0248 51.0114 28.7669 50.6168 27.7288 49.8752C26.6906 49.1335 25.9283 48.0848 25.5563 46.8867C24.0724 42.5621 25.7378 37.8872 16.4857 36.7092" fill="white"/>
<path d="M16.4857 32.6474L16.4804 32.4475L16.2857 32.4526V32.6474H16.4857ZM29.3579 45.4096H29.5579V45.4024L29.5574 45.3952L29.3579 45.4096ZM31.3137 46.4296H31.5137V46.2296H31.3137V46.4296ZM31.3137 50.9998L31.3155 51.1998L31.5137 51.198V50.9998H31.3137ZM25.5563 46.8867L25.7474 46.8273L25.7455 46.8218L25.5563 46.8867ZM16.6857 36.7081V32.6474H16.2857V36.7081H16.6857ZM16.4857 32.6474C16.491 32.8473 16.491 32.8473 16.4909 32.8473C16.491 32.8473 16.491 32.8473 16.4911 32.8473C16.4913 32.8473 16.4917 32.8473 16.4923 32.8473C16.4935 32.8473 16.4954 32.8472 16.4979 32.8472C16.5031 32.8471 16.511 32.847 16.5217 32.8469C16.5431 32.8467 16.5754 32.8466 16.6179 32.847C16.703 32.8479 16.8288 32.8508 16.9899 32.8591C17.3122 32.8757 17.7751 32.9138 18.3341 33C19.4529 33.1725 20.9524 33.5368 22.479 34.3029C25.5208 35.8292 28.693 38.9599 29.1584 45.4239L29.5574 45.3952C29.0812 38.7809 25.8173 35.5305 22.6584 33.9454C21.0847 33.1557 19.5426 32.7816 18.3951 32.6047C17.8209 32.5162 17.3444 32.4768 17.0105 32.4596C16.8435 32.451 16.7121 32.448 16.6219 32.4471C16.5768 32.4466 16.542 32.4467 16.5182 32.4469C16.5063 32.447 16.4971 32.4471 16.4908 32.4473C16.4876 32.4473 16.4852 32.4474 16.4835 32.4474C16.4826 32.4474 16.4819 32.4474 16.4814 32.4474C16.4811 32.4475 16.4809 32.4475 16.4808 32.4475C16.4806 32.4475 16.4804 32.4475 16.4857 32.6474ZM29.1579 45.4096C29.1579 45.7351 29.2911 46.046 29.5263 46.2743L29.8049 45.9873C29.646 45.8331 29.5579 45.6251 29.5579 45.4096H29.1579ZM29.5263 46.2743C29.7612 46.5024 30.0786 46.6296 30.4084 46.6296V46.2296C30.1809 46.2296 29.964 46.1418 29.8049 45.9873L29.5263 46.2743ZM30.4084 46.6296H31.3137V46.2296H30.4084V46.6296ZM31.1137 46.4296V50.9998H31.5137V46.4296H31.1137ZM31.3119 50.7998C30.0649 50.8111 28.8484 50.4292 27.845 49.7124L27.6125 50.0379C28.6855 50.8044 29.9848 51.2118 31.3155 51.1998L31.3119 50.7998ZM27.845 49.7124C26.8418 48.9957 26.1061 47.9831 25.7473 46.8274L25.3653 46.946C25.7505 48.1866 26.5395 49.2713 27.6125 50.0379L27.845 49.7124ZM25.7455 46.8218C25.3805 45.7582 25.2092 44.6737 25.0107 43.6013C24.8136 42.5364 24.5897 41.4847 24.113 40.5287C23.1458 38.5889 21.172 37.1042 16.511 36.5108L16.4605 36.9076C21.0515 37.4921 22.871 38.934 23.7551 40.7072C24.2041 41.6078 24.4203 42.6094 24.6174 43.6741C24.8131 44.7313 24.9901 45.8528 25.3671 46.9516L25.7455 46.8218Z" fill="white" mask="url(#path-6-outside-3_2303_4106)"/>
<path d="M91.5658 35.3989C91.5658 34.7544 91.4655 34.1815 91.265 33.6802C91.0788 33.1789 90.7422 32.7205 90.2552 32.3052C89.7683 31.8898 89.0808 31.4888 88.1927 31.1021C87.3191 30.701 86.2019 30.2928 84.8412 29.8774C83.3516 29.4191 81.9766 28.9106 80.7162 28.3521C79.4701 27.7791 78.3816 27.1203 77.4506 26.3755C76.5196 25.6164 75.7963 24.7498 75.2806 23.7759C74.765 22.7876 74.5072 21.6489 74.5072 20.3599C74.5072 19.0851 74.7722 17.925 75.3021 16.8794C75.8464 15.8338 76.6127 14.9315 77.601 14.1724C78.6036 13.3989 79.7852 12.8045 81.1459 12.3892C82.5066 11.9595 84.0105 11.7446 85.6576 11.7446C87.9779 11.7446 89.976 12.1743 91.6517 13.0337C93.3418 13.8931 94.6381 15.0461 95.5404 16.4927C96.4571 17.9393 96.9154 19.5363 96.9154 21.2837H91.5658C91.5658 20.2524 91.3438 19.3429 90.8998 18.5552C90.4701 17.7531 89.8112 17.1229 88.9232 16.6646C88.0495 16.2062 86.9395 15.9771 85.5931 15.9771C84.3184 15.9771 83.2585 16.1704 82.4135 16.5571C81.5684 16.9438 80.9382 17.4666 80.5228 18.1255C80.1075 18.7843 79.8998 19.5291 79.8998 20.3599C79.8998 20.9471 80.0358 21.4842 80.308 21.9712C80.5801 22.4438 80.9955 22.8879 81.5541 23.3032C82.1127 23.7043 82.8145 24.0838 83.6595 24.4419C84.5046 24.8 85.5 25.1437 86.6459 25.4731C88.3789 25.9888 89.89 26.5617 91.1791 27.1919C92.4681 27.8078 93.5424 28.5096 94.4017 29.2974C95.2611 30.0851 95.9056 30.9803 96.3353 31.9829C96.765 32.9712 96.9799 34.0955 96.9799 35.356C96.9799 36.6737 96.7149 37.8625 96.1849 38.9224C95.655 39.9679 94.8959 40.8631 93.9076 41.6079C92.9336 42.3384 91.7592 42.9041 90.3842 43.3052C89.0235 43.6919 87.5052 43.8853 85.8295 43.8853C84.3256 43.8853 82.8431 43.6847 81.3822 43.2837C79.9356 42.8826 78.6179 42.2739 77.4291 41.4575C76.2403 40.6268 75.295 39.5955 74.5931 38.3638C73.8913 37.1177 73.5404 35.6639 73.5404 34.0024H78.933C78.933 35.0194 79.1049 35.8859 79.4486 36.6021C79.8067 37.3182 80.3008 37.9054 80.931 38.3638C81.5612 38.8078 82.2917 39.1372 83.1224 39.3521C83.9675 39.5669 84.8698 39.6743 85.8295 39.6743C87.0899 39.6743 88.1426 39.4953 88.9877 39.1372C89.847 38.7791 90.4916 38.2778 90.9213 37.6333C91.351 36.9888 91.5658 36.244 91.5658 35.3989ZM111.89 20.2095V23.9907H98.7845V20.2095H111.89ZM102.566 14.5161H107.744V37.0317C107.744 37.7479 107.844 38.2993 108.044 38.686C108.259 39.0584 108.553 39.3091 108.925 39.438C109.298 39.5669 109.734 39.6313 110.236 39.6313C110.594 39.6313 110.938 39.6099 111.267 39.5669C111.596 39.5239 111.861 39.481 112.062 39.438L112.083 43.3911C111.654 43.52 111.152 43.6346 110.579 43.7349C110.021 43.8351 109.376 43.8853 108.646 43.8853C107.457 43.8853 106.404 43.6776 105.488 43.2622C104.571 42.8325 103.855 42.1379 103.339 41.1782C102.824 40.2186 102.566 38.9438 102.566 37.354V14.5161ZM114.382 32.0903V31.5962C114.382 29.9204 114.626 28.3664 115.113 26.9341C115.6 25.4875 116.301 24.2342 117.218 23.1743C118.149 22.1001 119.281 21.2694 120.613 20.6821C121.959 20.0806 123.477 19.7798 125.167 19.7798C126.872 19.7798 128.39 20.0806 129.722 20.6821C131.068 21.2694 132.207 22.1001 133.138 23.1743C134.069 24.2342 134.778 25.4875 135.265 26.9341C135.752 28.3664 135.995 29.9204 135.995 31.5962V32.0903C135.995 33.7661 135.752 35.3201 135.265 36.7524C134.778 38.1847 134.069 39.438 133.138 40.5122C132.207 41.5721 131.076 42.4028 129.744 43.0044C128.411 43.5916 126.9 43.8853 125.21 43.8853C123.506 43.8853 121.981 43.5916 120.634 43.0044C119.302 42.4028 118.171 41.5721 117.24 40.5122C116.309 39.438 115.6 38.1847 115.113 36.7524C114.626 35.3201 114.382 33.7661 114.382 32.0903ZM119.56 31.5962V32.0903C119.56 33.1359 119.667 34.1242 119.882 35.0552C120.097 35.9862 120.434 36.8026 120.892 37.5044C121.35 38.2062 121.938 38.7576 122.654 39.1587C123.37 39.5597 124.222 39.7603 125.21 39.7603C126.17 39.7603 127.001 39.5597 127.703 39.1587C128.419 38.7576 129.006 38.2062 129.464 37.5044C129.923 36.8026 130.259 35.9862 130.474 35.0552C130.703 34.1242 130.818 33.1359 130.818 32.0903V31.5962C130.818 30.5649 130.703 29.591 130.474 28.6743C130.259 27.7433 129.915 26.9198 129.443 26.2036C128.984 25.4875 128.397 24.9289 127.681 24.5278C126.979 24.1125 126.141 23.9048 125.167 23.9048C124.193 23.9048 123.348 24.1125 122.632 24.5278C121.93 24.9289 121.35 25.4875 120.892 26.2036C120.434 26.9198 120.097 27.7433 119.882 28.6743C119.667 29.591 119.56 30.5649 119.56 31.5962ZM143.816 20.2095L148.242 27.9224L152.753 20.2095H158.447L151.4 31.6177L158.726 43.4556H153.033L148.306 35.4204L143.579 43.4556H137.865L145.169 31.6177L138.144 20.2095H143.816ZM167.9 12.1743V43.4556H162.507V12.1743H167.9ZM186.699 12.1743L174.023 27.2349L166.804 34.8833L165.859 29.5337L171.015 23.1743L180.124 12.1743H186.699ZM180.898 43.4556L170.607 28.6313L174.324 24.9575L187.3 43.4556H180.898ZM202.898 38.7935V27.7075C202.898 26.8768 202.747 26.1606 202.447 25.5591C202.146 24.9575 201.688 24.492 201.072 24.1626C200.47 23.8332 199.711 23.6685 198.794 23.6685C197.949 23.6685 197.219 23.8117 196.603 24.0981C195.987 24.3846 195.507 24.7713 195.163 25.2583C194.82 25.7453 194.648 26.2967 194.648 26.9126H189.492C189.492 25.9959 189.714 25.1079 190.158 24.2485C190.602 23.3892 191.246 22.6229 192.091 21.9497C192.936 21.2765 193.946 20.7466 195.12 20.3599C196.295 19.9731 197.613 19.7798 199.074 19.7798C200.821 19.7798 202.368 20.0734 203.714 20.6606C205.075 21.2479 206.142 22.1359 206.915 23.3247C207.703 24.4992 208.097 25.9744 208.097 27.7505V38.0845C208.097 39.1444 208.169 40.0968 208.312 40.9419C208.469 41.7726 208.691 42.4959 208.978 43.1118V43.4556H203.671C203.428 42.897 203.234 42.188 203.091 41.3286C202.962 40.4549 202.898 39.6099 202.898 38.7935ZM203.65 29.3188L203.693 32.52H199.976C199.016 32.52 198.171 32.6131 197.441 32.7993C196.71 32.9712 196.102 33.229 195.615 33.5728C195.128 33.9165 194.762 34.3319 194.519 34.8188C194.275 35.3058 194.154 35.8573 194.154 36.4731C194.154 37.089 194.297 37.6548 194.583 38.1704C194.87 38.6717 195.285 39.0656 195.829 39.3521C196.388 39.6385 197.061 39.7817 197.849 39.7817C198.909 39.7817 199.833 39.5669 200.62 39.1372C201.423 38.6932 202.053 38.1561 202.511 37.5259C202.969 36.8813 203.213 36.2726 203.242 35.6997L204.917 37.9985C204.745 38.5858 204.452 39.216 204.036 39.8892C203.621 40.5623 203.077 41.2069 202.404 41.8228C201.745 42.4243 200.95 42.9185 200.019 43.3052C199.102 43.6919 198.042 43.8853 196.839 43.8853C195.321 43.8853 193.967 43.5845 192.779 42.9829C191.59 42.367 190.659 41.5435 189.986 40.5122C189.313 39.4666 188.976 38.285 188.976 36.9673C188.976 35.7355 189.205 34.647 189.663 33.7017C190.136 32.742 190.824 31.9399 191.726 31.2954C192.643 30.6509 193.76 30.1639 195.078 29.8345C196.395 29.4907 197.899 29.3188 199.589 29.3188H203.65ZM218.71 24.6353V43.4556H213.533V20.2095H218.474L218.71 24.6353ZM225.822 20.0591L225.779 24.8716C225.464 24.8143 225.12 24.7713 224.747 24.7427C224.389 24.714 224.031 24.6997 223.673 24.6997C222.785 24.6997 222.005 24.8286 221.331 25.0864C220.658 25.3299 220.092 25.688 219.634 26.1606C219.19 26.619 218.846 27.1776 218.603 27.8364C218.359 28.4953 218.216 29.2329 218.173 30.0493L216.992 30.1353C216.992 28.6743 217.135 27.3208 217.421 26.0747C217.708 24.8286 218.137 23.7329 218.71 22.7876C219.298 21.8423 220.028 21.1047 220.902 20.5747C221.79 20.0448 222.814 19.7798 223.974 19.7798C224.289 19.7798 224.626 19.8084 224.984 19.8657C225.356 19.923 225.635 19.9875 225.822 20.0591ZM240.796 20.2095V23.9907H227.691V20.2095H240.796ZM231.472 14.5161H236.65V37.0317C236.65 37.7479 236.75 38.2993 236.951 38.686C237.165 39.0584 237.459 39.3091 237.831 39.438C238.204 39.5669 238.641 39.6313 239.142 39.6313C239.5 39.6313 239.844 39.6099 240.173 39.5669C240.503 39.5239 240.768 39.481 240.968 39.438L240.99 43.3911C240.56 43.52 240.059 43.6346 239.486 43.7349C238.927 43.8351 238.283 43.8853 237.552 43.8853C236.363 43.8853 235.311 43.6776 234.394 43.2622C233.477 42.8325 232.761 42.1379 232.245 41.1782C231.73 40.2186 231.472 38.9438 231.472 37.354V14.5161Z" fill="white"/>
</svg>
